<?xml version="1.0" standalone="no"?>
<!DOCTYPE svg PUBLIC "-//W3C//DTD SVG 20010904//EN"
 "http://www.w3.org/TR/2001/REC-SVG-20010904/DTD/svg10.dtd">
<svg version="1.0" xmlns="http://www.w3.org/2000/svg"
 width="150.000000pt" height="70.000000pt" viewBox="0 0 329.000000 153.000000"
 preserveAspectRatio="xMidYMid meet">
<metadata>
Created by potrace 1.16, written by Peter Selinger 2001-2019
</metadata>
<g transform="translate(0.000000,153.000000) scale(0.100000,-0.100000)"
fill="#000000" stroke="none">
<path d="M625 1346 c-39 -17 -103 -88 -111 -123 -3 -16 -8 -34 -10 -42 -8 -25
18 -94 45 -122 18 -18 25 -32 20 -41 -4 -8 -22 -68 -39 -134 -17 -65 -32 -120
-34 -121 -1 -2 -37 -12 -79 -22 -129 -33 -205 -99 -214 -185 -6 -53 14 -78 77
-97 54 -16 139 0 186 36 37 28 75 95 94 164 l11 43 82 -7 c45 -4 84 -9 86 -11
3 -2 -4 -41 -15 -85 -18 -78 -21 -82 -54 -93 -19 -6 -43 -25 -55 -41 -25 -38
-79 -221 -70 -242 9 -26 21 -5 50 90 17 57 31 87 41 87 20 0 18 -26 -11 -110
-28 -82 -32 -120 -12 -120 8 0 25 40 43 101 33 114 46 140 64 123 9 -9 4 -36
-19 -111 -35 -114 -36 -123 -17 -123 13 0 47 92 62 169 8 38 31 60 40 38 5
-13 -2 -40 -42 -169 -6 -19 20 -26 31 -9 11 18 65 216 65 239 0 13 -11 34 -24
47 l-24 24 22 83 22 83 58 8 c32 5 60 7 62 4 2 -2 -1 -19 -6 -38 -6 -19 -11
-59 -11 -89 -1 -66 21 -90 83 -90 49 0 86 19 125 63 l30 35 12 -39 c22 -72 73
-75 146 -8 l44 41 -10 -34 c-7 -27 -6 -35 8 -46 42 -30 61 -10 88 96 12 50 34
111 49 136 30 51 102 108 131 104 30 -4 30 -41 1 -156 -40 -157 -32 -192 43
-192 37 0 96 34 114 65 11 21 27 19 27 -4 0 -28 47 -61 87 -61 44 0 85 22 117
62 29 37 31 32 13 -32 -12 -41 -19 -48 -81 -81 -37 -19 -81 -49 -97 -65 -68
-68 -38 -155 53 -156 79 -2 116 38 152 163 15 50 21 58 80 97 91 60 165 169
211 312 10 30 21 59 25 63 9 10 50 -39 50 -59 0 -7 -19 -43 -42 -81 -37 -58
-43 -75 -43 -121 0 -46 4 -57 28 -78 52 -44 137 -28 191 36 22 26 26 28 26 12
0 -11 9 -31 21 -46 39 -49 126 -32 188 39 35 40 39 31 15 -39 -15 -43 -22 -50
-78 -77 -74 -35 -98 -55 -120 -97 -37 -71 -4 -122 78 -122 42 0 53 5 86 37 27
27 44 59 61 111 21 66 28 76 62 94 22 10 58 38 81 61 43 44 106 145 106 172 0
32 -26 13 -53 -40 -31 -58 -116 -145 -142 -145 -18 0 -20 -12 41 210 24 85 39
159 35 163 -5 5 -21 7 -36 5 -26 -3 -30 -10 -55 -88 -33 -107 -73 -182 -122
-226 -42 -38 -59 -42 -78 -18 -11 12 -7 41 24 165 20 82 34 154 31 159 -3 6
-19 10 -34 10 -26 0 -29 -5 -51 -82 -13 -45 -36 -107 -51 -138 -49 -97 -126
-152 -163 -115 -31 31 -18 86 41 172 43 62 40 76 -29 150 -34 35 -48 58 -44
68 8 22 -11 55 -32 55 -38 0 -55 -48 -32 -91 14 -26 -7 -97 -64 -214 -44 -90
-97 -154 -149 -182 -27 -13 -28 -13 -23 4 23 76 66 247 66 262 0 19 -32 34
-55 25 -6 -3 -20 -31 -29 -62 -22 -71 -81 -160 -122 -184 -27 -16 -33 -16 -50
-4 -57 42 15 224 108 272 42 22 108 21 145 -1 35 -21 63 -15 63 14 0 50 -174
77 -248 38 -53 -29 -112 -95 -139 -156 -44 -100 -57 -122 -91 -152 -66 -58
-73 -31 -32 118 35 127 34 172 -3 198 -45 31 -104 14 -174 -52 l-32 -30 6 43
6 44 -36 0 -35 0 -22 -82 c-12 -46 -36 -108 -52 -138 -55 -99 -118 -147 -135
-104 -8 21 22 160 53 244 13 35 19 69 15 73 -5 5 -21 7 -37 5 -27 -3 -31 -10
-70 -120 -42 -122 -76 -177 -127 -208 -32 -20 -59 -14 -70 13 -6 17 16 119 49
219 14 43 23 82 19 88 -3 5 -19 10 -34 10 -25 0 -31 -6 -50 -61 -17 -45 -29
-63 -49 -70 -38 -14 -97 -8 -96 11 4 45 49 234 71 293 20 57 22 71 11 78 -17
11 -49 11 -66 0 -18 -11 -56 -129 -82 -252 -12 -57 -26 -108 -30 -113 -9 -9
-140 1 -159 13 -9 6 -4 39 21 136 32 122 34 129 62 136 33 9 82 52 102 91 36
69 2 192 -60 222 -41 19 -61 20 -101 2z m-145 -661 c0 -30 -41 -122 -64 -144
-53 -50 -135 -31 -121 28 10 44 39 75 95 104 60 30 90 34 90 12z"/>
</g>
</svg>
